<svg width="167" height="46" viewBox="0 0 167 46" fill="none" xmlns="http://www.w3.org/2000/svg">
<g clip-path="url(#clip0_21_758)">
<path d="M22.9856 32.8159L12.34 25.6046L10 27.1904L23 36L36 27.1904L33.6456 25.592L22.9856 32.8159ZM23 29.6193L33.6311 22.408L36 20.8096L23 12L10 20.8096L12.3544 22.408L23 29.6193Z" fill="#0550A0"/>
<path d="M22.9856 32.8159L12.34 25.6046L10 27.1904L23 36L36 27.1904L33.6456 25.592L22.9856 32.8159ZM23 29.6193L33.6311 22.408L36 20.8096L23 12L10 20.8096L12.3544 22.408L23 29.6193Z" stroke="black"/>
<path d="M50.533 32.27C49.237 32.27 48.148 32 47.266 31.46C46.402 30.92 45.736 30.182 45.268 29.246C44.818 28.31 44.575 27.266 44.539 26.114C44.521 25.844 44.512 25.466 44.512 24.98C44.512 24.494 44.521 24.116 44.539 23.846C44.575 22.676 44.818 21.632 45.268 20.714C45.736 19.778 46.402 19.04 47.266 18.5C48.148 17.96 49.237 17.69 50.533 17.69C51.829 17.69 52.909 17.96 53.773 18.5C54.655 19.04 55.321 19.778 55.771 20.714C56.239 21.632 56.491 22.676 56.527 23.846C56.545 24.116 56.554 24.494 56.554 24.98C56.554 25.466 56.545 25.844 56.527 26.114C56.491 27.266 56.239 28.31 55.771 29.246C55.321 30.182 54.655 30.92 53.773 31.46C52.909 32 51.829 32.27 50.533 32.27ZM50.533 30.704C51.793 30.704 52.819 30.299 53.611 29.489C54.403 28.679 54.826 27.509 54.88 25.979C54.898 25.709 54.907 25.376 54.907 24.98C54.907 24.584 54.898 24.251 54.88 23.981C54.826 22.433 54.403 21.263 53.611 20.471C52.819 19.661 51.793 19.256 50.533 19.256C49.273 19.256 48.247 19.661 47.455 20.471C46.663 21.263 46.24 22.433 46.186 23.981C46.168 24.251 46.159 24.584 46.159 24.98C46.159 25.376 46.168 25.709 46.186 25.979C46.24 27.509 46.663 28.679 47.455 29.489C48.247 30.299 49.273 30.704 50.533 30.704ZM59.8637 37.13C59.6837 37.13 59.5397 37.076 59.4317 36.968C59.3237 36.86 59.2697 36.716 59.2697 36.536V18.554C59.2697 18.374 59.3237 18.23 59.4317 18.122C59.5397 18.014 59.6837 17.96 59.8637 17.96H60.3227C60.5027 17.96 60.6467 18.014 60.7547 18.122C60.8627 18.23 60.9167 18.374 60.9167 18.554V19.823C61.3667 19.211 61.9517 18.707 62.6717 18.311C63.4097 17.897 64.3367 17.69 65.4527 17.69C66.5147 17.69 67.4057 17.879 68.1257 18.257C68.8457 18.617 69.4307 19.103 69.8807 19.715C70.3307 20.327 70.6637 21.011 70.8797 21.767C71.0957 22.523 71.2127 23.297 71.2307 24.089C71.2487 24.359 71.2577 24.656 71.2577 24.98C71.2577 25.304 71.2487 25.601 71.2307 25.871C71.2127 26.663 71.0957 27.437 70.8797 28.193C70.6637 28.949 70.3307 29.633 69.8807 30.245C69.4307 30.857 68.8457 31.352 68.1257 31.73C67.4057 32.09 66.5147 32.27 65.4527 32.27C64.3367 32.27 63.4097 32.063 62.6717 31.649C61.9517 31.235 61.3667 30.731 60.9167 30.137V36.536C60.9167 36.716 60.8627 36.86 60.7547 36.968C60.6467 37.076 60.5027 37.13 60.3227 37.13H59.8637ZM65.2907 30.704C66.3527 30.704 67.1897 30.47 67.8017 30.002C68.4137 29.534 68.8547 28.922 69.1247 28.166C69.3947 27.41 69.5477 26.6 69.5837 25.736C69.6017 25.232 69.6017 24.728 69.5837 24.224C69.5477 23.36 69.3947 22.55 69.1247 21.794C68.8547 21.038 68.4137 20.426 67.8017 19.958C67.1897 19.49 66.3527 19.256 65.2907 19.256C64.2647 19.256 63.4367 19.499 62.8067 19.985C62.1767 20.471 61.7087 21.083 61.4027 21.821C61.1147 22.541 60.9527 23.27 60.9167 24.008C60.8987 24.278 60.8897 24.629 60.8897 25.061C60.8897 25.493 60.8987 25.844 60.9167 26.114C60.9347 26.834 61.0967 27.545 61.4027 28.247C61.7267 28.949 62.2037 29.534 62.8337 30.002C63.4817 30.47 64.3007 30.704 65.2907 30.704ZM79.1421 32.27C77.3961 32.27 76.0101 31.703 74.9841 30.569C73.9581 29.417 73.3731 27.914 73.2291 26.06C73.2111 25.79 73.2021 25.43 73.2021 24.98C73.2021 24.53 73.2111 24.17 73.2291 23.9C73.3191 22.676 73.6071 21.596 74.0931 20.66C74.5791 19.724 75.2451 18.995 76.0911 18.473C76.9551 17.951 77.9721 17.69 79.1421 17.69C80.4021 17.69 81.4731 17.969 82.3551 18.527C83.2371 19.085 83.9121 19.886 84.3801 20.93C84.8661 21.974 85.1091 23.216 85.1091 24.656V25.061C85.1091 25.241 85.0461 25.385 84.9201 25.493C84.8121 25.601 84.6681 25.655 84.4881 25.655H74.8761C74.8761 25.655 74.8761 25.691 74.8761 25.763C74.8761 25.835 74.8761 25.889 74.8761 25.925C74.9121 26.735 75.1011 27.509 75.4431 28.247C75.7851 28.967 76.2711 29.561 76.9011 30.029C77.5311 30.479 78.2781 30.704 79.1421 30.704C79.9161 30.704 80.5551 30.587 81.0591 30.353C81.5811 30.119 81.9951 29.867 82.3011 29.597C82.6071 29.309 82.8051 29.093 82.8951 28.949C83.0571 28.715 83.1831 28.58 83.2731 28.544C83.3631 28.49 83.5071 28.463 83.7051 28.463H84.1371C84.2991 28.463 84.4341 28.517 84.5421 28.625C84.6681 28.715 84.7221 28.841 84.7041 29.003C84.6861 29.255 84.5421 29.57 84.2721 29.948C84.0201 30.308 83.6511 30.668 83.1651 31.028C82.6971 31.388 82.1211 31.685 81.4371 31.919C80.7531 32.153 79.9881 32.27 79.1421 32.27ZM74.8761 24.143H83.4621V24.035C83.4621 23.135 83.2911 22.325 82.9491 21.605C82.6071 20.885 82.1121 20.318 81.4641 19.904C80.8161 19.472 80.0421 19.256 79.1421 19.256C78.2421 19.256 77.4681 19.472 76.8201 19.904C76.1901 20.318 75.7041 20.885 75.3621 21.605C75.0381 22.325 74.8761 23.135 74.8761 24.035V24.143ZM88.2644 32C88.0844 32 87.9404 31.946 87.8324 31.838C87.7244 31.73 87.6704 31.586 87.6704 31.406V18.554C87.6704 18.374 87.7244 18.23 87.8324 18.122C87.9404 18.014 88.0844 17.96 88.2644 17.96H88.7234C88.9034 17.96 89.0474 18.014 89.1554 18.122C89.2634 18.23 89.3174 18.374 89.3174 18.554V19.823C89.8034 19.193 90.3884 18.68 91.0724 18.284C91.7744 17.888 92.7014 17.69 93.8534 17.69C95.0774 17.69 96.0944 17.96 96.9044 18.5C97.7324 19.022 98.3444 19.742 98.7404 20.66C99.1544 21.56 99.3614 22.586 99.3614 23.738V31.406C99.3614 31.586 99.3074 31.73 99.1994 31.838C99.0914 31.946 98.9474 32 98.7674 32H98.3084C98.1284 32 97.9844 31.946 97.8764 31.838C97.7684 31.73 97.7144 31.586 97.7144 31.406V23.873C97.7144 22.433 97.3634 21.308 96.6614 20.498C95.9594 19.67 94.9334 19.256 93.5834 19.256C92.3054 19.256 91.2704 19.67 90.4784 20.498C89.7044 21.308 89.3174 22.433 89.3174 23.873V31.406C89.3174 31.586 89.2634 31.73 89.1554 31.838C89.0474 31.946 88.9034 32 88.7234 32H88.2644Z" fill="#7F7F7F"/>
<path d="M108.077 32.27C106.799 32.27 105.692 32.027 104.756 31.541C103.838 31.037 103.127 30.326 102.623 29.408C102.119 28.472 101.849 27.356 101.813 26.06C101.795 25.79 101.786 25.43 101.786 24.98C101.786 24.53 101.795 24.17 101.813 23.9C101.849 22.604 102.119 21.497 102.623 20.579C103.127 19.643 103.838 18.932 104.756 18.446C105.692 17.942 106.799 17.69 108.077 17.69C109.121 17.69 110.012 17.834 110.75 18.122C111.506 18.41 112.127 18.779 112.613 19.229C113.099 19.679 113.459 20.165 113.693 20.687C113.945 21.209 114.08 21.704 114.098 22.172C114.116 22.352 114.062 22.496 113.936 22.604C113.81 22.712 113.657 22.766 113.477 22.766H112.181C112.001 22.766 111.866 22.73 111.776 22.658C111.686 22.568 111.596 22.424 111.506 22.226C111.182 21.344 110.741 20.723 110.183 20.363C109.625 20.003 108.932 19.823 108.104 19.823C107.024 19.823 106.142 20.156 105.458 20.822C104.792 21.488 104.432 22.559 104.378 24.035C104.36 24.683 104.36 25.313 104.378 25.925C104.432 27.419 104.792 28.499 105.458 29.165C106.142 29.813 107.024 30.137 108.104 30.137C108.932 30.137 109.625 29.957 110.183 29.597C110.741 29.237 111.182 28.616 111.506 27.734C111.596 27.536 111.686 27.401 111.776 27.329C111.866 27.239 112.001 27.194 112.181 27.194H113.477C113.657 27.194 113.81 27.248 113.936 27.356C114.062 27.464 114.116 27.608 114.098 27.788C114.08 28.166 113.999 28.553 113.855 28.949C113.711 29.345 113.477 29.75 113.153 30.164C112.847 30.56 112.46 30.92 111.992 31.244C111.524 31.55 110.957 31.802 110.291 32C109.643 32.18 108.905 32.27 108.077 32.27ZM120.22 32.27C119.32 32.27 118.501 32.09 117.763 31.73C117.025 31.37 116.431 30.884 115.981 30.272C115.531 29.66 115.306 28.967 115.306 28.193C115.306 26.951 115.81 25.961 116.818 25.223C117.826 24.485 119.14 23.999 120.76 23.765L124.783 23.198V22.415C124.783 21.551 124.531 20.876 124.027 20.39C123.541 19.904 122.74 19.661 121.624 19.661C120.814 19.661 120.157 19.823 119.653 20.147C119.167 20.471 118.825 20.885 118.627 21.389C118.519 21.659 118.33 21.794 118.06 21.794H116.845C116.647 21.794 116.494 21.74 116.386 21.632C116.296 21.506 116.251 21.362 116.251 21.2C116.251 20.93 116.35 20.597 116.548 20.201C116.764 19.805 117.088 19.418 117.52 19.04C117.952 18.662 118.501 18.347 119.167 18.095C119.851 17.825 120.679 17.69 121.651 17.69C122.731 17.69 123.64 17.834 124.378 18.122C125.116 18.392 125.692 18.761 126.106 19.229C126.538 19.697 126.844 20.228 127.024 20.822C127.222 21.416 127.321 22.019 127.321 22.631V31.379C127.321 31.559 127.258 31.712 127.132 31.838C127.024 31.946 126.88 32 126.7 32H125.458C125.26 32 125.107 31.946 124.999 31.838C124.891 31.712 124.837 31.559 124.837 31.379V30.218C124.603 30.542 124.288 30.866 123.892 31.19C123.496 31.496 123.001 31.757 122.407 31.973C121.813 32.171 121.084 32.27 120.22 32.27ZM120.787 30.245C121.525 30.245 122.2 30.092 122.812 29.786C123.424 29.462 123.901 28.967 124.243 28.301C124.603 27.635 124.783 26.798 124.783 25.79V25.034L121.651 25.493C120.373 25.673 119.41 25.979 118.762 26.411C118.114 26.825 117.79 27.356 117.79 28.004C117.79 28.508 117.934 28.931 118.222 29.273C118.528 29.597 118.906 29.84 119.356 30.002C119.824 30.164 120.301 30.245 120.787 30.245ZM135.062 32.27C134.054 32.27 133.19 32.144 132.47 31.892C131.75 31.64 131.165 31.334 130.715 30.974C130.265 30.614 129.923 30.254 129.689 29.894C129.473 29.534 129.356 29.246 129.338 29.03C129.32 28.832 129.383 28.679 129.527 28.571C129.671 28.463 129.815 28.409 129.959 28.409H131.147C131.255 28.409 131.336 28.427 131.39 28.463C131.462 28.481 131.552 28.553 131.66 28.679C131.894 28.931 132.155 29.183 132.443 29.435C132.731 29.687 133.082 29.894 133.496 30.056C133.928 30.218 134.459 30.299 135.089 30.299C136.007 30.299 136.763 30.128 137.357 29.786C137.951 29.426 138.248 28.904 138.248 28.22C138.248 27.77 138.122 27.41 137.87 27.14C137.636 26.87 137.204 26.627 136.574 26.411C135.962 26.195 135.116 25.97 134.036 25.736C132.956 25.484 132.101 25.178 131.471 24.818C130.841 24.44 130.391 23.999 130.121 23.495C129.851 22.973 129.716 22.388 129.716 21.74C129.716 21.074 129.914 20.435 130.31 19.823C130.706 19.193 131.282 18.68 132.038 18.284C132.812 17.888 133.775 17.69 134.927 17.69C135.863 17.69 136.664 17.807 137.33 18.041C137.996 18.275 138.545 18.572 138.977 18.932C139.409 19.274 139.733 19.616 139.949 19.958C140.165 20.3 140.282 20.588 140.3 20.822C140.318 21.002 140.264 21.155 140.138 21.281C140.012 21.389 139.868 21.443 139.706 21.443H138.572C138.446 21.443 138.338 21.416 138.248 21.362C138.176 21.308 138.104 21.245 138.032 21.173C137.852 20.939 137.636 20.705 137.384 20.471C137.15 20.237 136.835 20.048 136.439 19.904C136.061 19.742 135.557 19.661 134.927 19.661C134.027 19.661 133.352 19.85 132.902 20.228C132.452 20.606 132.227 21.083 132.227 21.659C132.227 22.001 132.326 22.307 132.524 22.577C132.722 22.847 133.1 23.09 133.658 23.306C134.216 23.522 135.044 23.756 136.142 24.008C137.33 24.242 138.266 24.557 138.95 24.953C139.634 25.349 140.12 25.808 140.408 26.33C140.696 26.852 140.84 27.455 140.84 28.139C140.84 28.895 140.615 29.588 140.165 30.218C139.733 30.848 139.085 31.352 138.221 31.73C137.375 32.09 136.322 32.27 135.062 32.27ZM148.555 32.27C146.701 32.27 145.225 31.703 144.127 30.569C143.029 29.417 142.426 27.851 142.318 25.871C142.3 25.637 142.291 25.34 142.291 24.98C142.291 24.602 142.3 24.296 142.318 24.062C142.39 22.784 142.687 21.668 143.209 20.714C143.731 19.742 144.442 18.995 145.342 18.473C146.26 17.951 147.331 17.69 148.555 17.69C149.923 17.69 151.066 17.978 151.984 18.554C152.92 19.13 153.631 19.949 154.117 21.011C154.603 22.073 154.846 23.315 154.846 24.737V25.196C154.846 25.394 154.783 25.547 154.657 25.655C154.549 25.763 154.405 25.817 154.225 25.817H144.883C144.883 25.835 144.883 25.871 144.883 25.925C144.883 25.979 144.883 26.024 144.883 26.06C144.919 26.798 145.081 27.491 145.369 28.139C145.657 28.769 146.071 29.282 146.611 29.678C147.151 30.074 147.799 30.272 148.555 30.272C149.203 30.272 149.743 30.173 150.175 29.975C150.607 29.777 150.958 29.561 151.228 29.327C151.498 29.075 151.678 28.886 151.768 28.76C151.93 28.526 152.056 28.391 152.146 28.355C152.236 28.301 152.38 28.274 152.578 28.274H153.874C154.054 28.274 154.198 28.328 154.306 28.436C154.432 28.526 154.486 28.661 154.468 28.841C154.45 29.111 154.306 29.444 154.036 29.84C153.766 30.218 153.379 30.596 152.875 30.974C152.371 31.352 151.759 31.667 151.039 31.919C150.319 32.153 149.491 32.27 148.555 32.27ZM144.883 23.954H152.281V23.873C152.281 23.063 152.128 22.343 151.822 21.713C151.534 21.083 151.111 20.588 150.553 20.228C149.995 19.85 149.329 19.661 148.555 19.661C147.781 19.661 147.115 19.85 146.557 20.228C146.017 20.588 145.603 21.083 145.315 21.713C145.027 22.343 144.883 23.063 144.883 23.873V23.954Z" fill="#4C4C4C"/>
</g>
<defs>
<clipPath id="clip0_21_758">
<rect width="167" height="46" fill="white"/>
</clipPath>
</defs>
</svg>
